<svg width="33" height="32" fill="none" xmlns="http://www.w3.org/2000/svg"><g clip-path="url(#a)" fill="#E23C18"><path d="M16.078 25.846c-2.898 0-5.394 2.059-6.46 4.986.121.054.246.108.37.159 1.005-2.783 3.356-4.74 6.09-4.74 2.735 0 5.086 1.957 6.09 4.74.125-.051.25-.105.372-.159-1.067-2.927-3.56-4.986-6.462-4.986Z"/><path d="M16.08 21.531c-4.345 0-8.1 2.99-9.834 7.295.145.111.292.222.44.33 1.628-4.181 5.224-7.094 9.394-7.094s7.763 2.913 9.394 7.093c.147-.107.295-.215.44-.329-1.734-4.305-5.489-7.295-9.834-7.295Z"/><path d="M16.08 23.686c-3.662 0-6.813 2.579-8.191 6.255.136.08.272.159.408.235 1.296-3.537 4.297-6.021 7.783-6.021 3.486 0 6.487 2.484 7.783 6.021.14-.076.275-.156.409-.235-1.379-3.676-4.53-6.255-8.192-6.255Z"/><path d="M16.079 28c-2.065 0-3.844 1.44-4.644 3.5.108.034.219.063.33.094.751-1.918 2.4-3.254 4.314-3.254 1.914 0 3.56 1.336 4.314 3.254.11-.032.221-.06.329-.094-.797-2.06-2.576-3.5-4.643-3.5ZM16.078 3.219c4.976 0 9.639 1.588 13.65 4.348a16.157 16.157 0 0 0-1.862-2.428c-3.587-1.937-7.578-3.018-11.785-3.018-4.206 0-8.2 1.084-11.785 3.018a16.155 16.155 0 0 0-1.86 2.428c4.007-2.76 8.67-4.348 13.648-4.348h-.006Z"/><path d="M16.079 30.156c-1.155 0-2.162.72-2.718 1.793.097.017.19.037.287.05.516-.94 1.412-1.565 2.43-1.565 1.019 0 1.918.624 2.431 1.566.097-.014.19-.034.287-.051-.556-1.072-1.563-1.793-2.717-1.793ZM16.079 7.41c6.211 0 11.861 2.867 16.045 7.521a16.08 16.08 0 0 0-.199-1.62c-4.257-4.28-9.796-6.877-15.846-6.877-6.05 0-11.59 2.598-15.847 6.878-.094.53-.16 1.07-.199 1.62 4.184-4.658 9.834-7.523 16.046-7.523ZM16.08 19.375c-4.95 0-9.25 3.299-11.37 8.106.148.148.302.292.458.434 1.994-4.705 6.135-7.947 10.914-7.947 4.78 0 8.918 3.242 10.914 7.947.154-.142.307-.286.457-.434-2.119-4.807-6.419-8.106-11.368-8.106h-.006Z"/><path d="M16.08 17.217c-5.463 0-10.237 3.494-12.77 8.662.148.19.298.38.454.564 2.389-5.102 7.012-8.568 12.319-8.568 5.307 0 9.93 3.466 12.318 8.569.156-.185.306-.372.454-.565-2.533-5.168-7.307-8.662-12.77-8.662h-.005Z"/><path d="M16.08 8.592c-6.309 0-12.01 3.06-16.08 7.967.014.448.043.894.09 1.333C4.026 12.744 9.735 9.5 16.08 9.5c6.344 0 12.054 3.245 15.988 8.393.048-.44.08-.885.09-1.333-4.07-4.907-9.773-7.967-16.079-7.967ZM6.898 2.879a24.945 24.945 0 0 1 9.182-1.753c3.208 0 6.297.616 9.181 1.753A16.014 16.014 0 0 0 16.08 0a16.014 16.014 0 0 0-9.182 2.879Z"/><path d="M1.382 9.545c-.286.64-.53 1.302-.732 1.982 4.266-3.888 9.621-6.214 15.43-6.214 5.81 0 11.164 2.326 15.43 6.214a15.764 15.764 0 0 0-.732-1.982C26.583 6.223 21.523 4.28 16.08 4.28S5.577 6.223 1.382 9.545ZM16.08 15.062c-5.878 0-11.048 3.576-14.004 8.954.136.241.281.48.428.712 2.794-5.36 7.835-8.949 13.575-8.949 5.741 0 10.781 3.585 13.575 8.949.148-.233.292-.47.429-.712-2.956-5.38-8.127-8.954-14.004-8.954Z"/><path d="M16.08 12.905c-6.175 0-11.649 3.537-15.021 8.963.116.3.24.596.374.888 3.202-5.471 8.572-9.068 14.647-9.068 6.076 0 11.445 3.597 14.647 9.068.133-.292.258-.587.375-.888-3.37-5.423-8.847-8.963-15.022-8.963Z"/><path d="M16.08 10.747c-6.331 0-11.998 3.367-15.754 8.643.077.371.17.737.272 1.097 3.591-5.406 9.193-8.895 15.479-8.895 6.285 0 11.887 3.49 15.478 8.895.102-.36.195-.726.272-1.097-3.755-5.276-9.423-8.643-15.753-8.643h.005Z"/></g><defs><clipPath id="a"><path fill="#fff" d="M0 0h32.162v32H0z"/></clipPath></defs></svg>