<svg width="32" height="32" fill="none" xmlns="http://www.w3.org/2000/svg"><g clip-path="url(#a)" fill="#E23C18"><path d="M12.34 15.373C9.94 6.187 17.667 2.12 21.193.858a15.91 15.91 0 0 0-3.035-.716c-3.219 1.85-8.452 7.484-5.82 15.23Z"/><path d="M12.344 16.665C6.954 8.855 12.812 2.396 15.698 0a16.13 16.13 0 0 0-3.089.356c-2.392 2.839-5.388 9.925-.265 16.306v.003Z"/><path d="M13.625 18.86C4.48 16.344 4.818 7.627 5.49 3.939c-.784.682-1.5 1.442-2.138 2.266-.006 3.714 2.253 11.062 10.273 12.657Z"/><path d="M12.79 17.876C5.052 12.378 8.358 4.296 10.25 1.062c-.979.378-1.91.846-2.784 1.402C6.192 5.952 5.8 13.631 12.793 17.876h-.003ZM16.02 19.718C7.388 23.675 2.045 16.764.195 13.513.068 14.323 0 15.155 0 16.002c0 .212.008.42.017.63 2.384 2.85 8.835 7.023 16.003 3.086ZM13.596 13.162c4.067-8.582 12.6-6.722 16.11-5.42a15.855 15.855 0 0 0-1.862-2.501c-3.653-.652-11.284.293-14.248 7.924v-.003Z"/><path d="M12.773 14.155c.889-9.45 9.532-10.628 13.278-10.608a16.155 16.155 0 0 0-2.598-1.713c-3.656.638-10.502 4.137-10.68 12.321ZM14.748 19.498c-9.462.768-12.122-7.552-12.75-11.243-.5.903-.918 1.86-1.236 2.859 1.26 3.49 5.895 9.632 13.983 8.387l.003-.003Z"/><path d="M14.71 12.514c6.754-6.672 14.136-2.01 16.991.414a15.933 15.933 0 0 0-.891-2.985c-3.21-1.863-10.706-3.587-16.1 2.57ZM19.657 15.336c5.39 7.809-.471 14.269-3.354 16.665 1.058-.02 2.09-.142 3.089-.356 2.392-2.84 5.387-9.925.265-16.306v-.003Z"/><path d="M17.252 12.499C26.713 11.73 29.37 20.05 30 23.745a15.9 15.9 0 0 0 1.235-2.859c-1.26-3.49-5.896-9.632-13.983-8.387Z"/><path d="M18.375 13.14c9.148 2.514 8.807 11.235 8.138 14.923.784-.683 1.5-1.442 2.138-2.266.006-3.714-2.253-11.063-10.273-12.657h-.003Z"/><path d="M31.983 15.37c-2.383-2.851-8.835-7.025-16.003-3.088 8.63-3.96 13.972 2.952 15.826 6.206.127-.81.194-1.643.194-2.49 0-.211-.008-.42-.017-.629ZM19.209 14.125c7.74 5.497 4.432 13.58 2.542 16.811.978-.378 1.91-.846 2.784-1.402 1.275-3.488 1.667-11.168-5.326-15.412v.003ZM18.403 18.835c-4.068 8.582-12.6 6.722-16.11 5.421a15.85 15.85 0 0 0 1.862 2.5c3.653.652 11.283-.293 14.248-7.924v.003Z"/><path d="M17.29 19.487C10.539 26.16 3.157 21.497.3 19.072c.201 1.033.503 2.032.892 2.986 3.21 1.863 10.705 3.587 16.099-2.57Z"/><path d="M19.227 17.842C18.338 27.293 9.695 28.47 5.95 28.45a16.159 16.159 0 0 0 2.598 1.713c3.656-.638 10.502-4.137 10.68-12.321Z"/><path d="M19.661 16.625c2.398 9.186-5.328 13.253-8.854 14.514a15.91 15.91 0 0 0 3.035.717c3.219-1.851 8.451-7.484 5.82-15.231Z"/></g><defs><clipPath id="a"><path fill="#fff" d="M0 0h32v32H0z"/></clipPath></defs></svg>