<svg width="32" height="32" fill="none" xmlns="http://www.w3.org/2000/svg"><g clip-path="url(#a)" fill="#E23C18"><path d="M15.999 15.999 16.882.025a15.212 15.212 0 0 0-1.76 0L16.001 16h-.003ZM16 32c.296 0 .59-.008.88-.025L16 16l-.88 15.974c.29.017.586.025.88.025Z"/><path d="M15.999 15.998 13.303.229a16.215 16.215 0 0 0-1.721.393l4.414 15.378h.003ZM19.559 31.596c.287-.064.573-.14.855-.22L16 15.998l2.695 15.77c.288-.05.576-.104.866-.172h-.002Z"/><path d="M15.998 15.998 9.86 1.225c-.27.112-.539.231-.804.36-.265.13-.528.266-.785.407l7.727 14.01v-.004ZM22.942 30.413c.266-.13.528-.265.785-.406L16 15.998l6.138 14.774c.271-.113.54-.232.804-.361v.002Z"/><path d="M15.998 15.998 6.728 2.963a15.354 15.354 0 0 0-1.38 1.1l10.65 11.935Z"/><path d="M25.977 28.506c.232-.184.454-.376.674-.57L15.998 15.998l9.274 13.038c.237-.17.474-.344.705-.53ZM16 15.998 4.06 5.354c-.195.217-.384.443-.57.674-.187.231-.362.466-.531.706L16 15.998ZM28.51 25.972c.184-.232.362-.466.531-.706L16 16l11.94 10.647c.195-.217.384-.443.57-.674Z"/><path d="M16 15.999 1.986 8.277a15.55 15.55 0 0 0-.765 1.589L16 16ZM30.418 22.938c.127-.265.249-.536.359-.804L16 16l14.012 7.722c.14-.257.276-.517.406-.785Z"/><path d="M15.998 15.998.621 11.59a16.494 16.494 0 0 0-.392 1.722l15.77 2.69v-.003ZM31.6 19.554c.065-.287.121-.575.172-.866l-15.77-2.69 15.378 4.409c.079-.282.155-.565.22-.855v.002Z"/><path d="M15.999 15.998.025 15.124a15.14 15.14 0 0 0 0 1.76L16 15.998ZM32 15.993c0-.296-.008-.59-.025-.88l-15.973.885 15.973.875c.017-.29.026-.587.026-.88Z"/><path d="M15.998 15.998.23 18.7c.051.288.108.576.173.867.065.288.14.573.22.855L15.998 16v-.003ZM31.597 12.434a17.241 17.241 0 0 0-.22-.855L16.002 16l15.77-2.701c-.05-.288-.107-.576-.172-.867l-.003.003Z"/><path d="M15.998 15.998 1.226 22.142c.112.27.231.539.36.804.13.265.266.528.407.785L16 15.998h-.002Z"/><path d="M30.41 9.05a18.69 18.69 0 0 0-.406-.784l-14.006 7.732 14.771-6.144c-.113-.27-.231-.539-.361-.804h.003ZM16 15.998 2.966 25.276a15.316 15.316 0 0 0 1.1 1.38L16 15.998Z"/><path d="M28.505 6.017a16.257 16.257 0 0 0-.57-.675L16 16l13.035-9.277c-.169-.237-.344-.474-.53-.705ZM15.998 15.999 5.355 27.945a15.881 15.881 0 0 0 1.38 1.1L15.998 16ZM25.969 3.486a17.741 17.741 0 0 0-.706-.53l-9.265 13.043L26.64 4.056a16.707 16.707 0 0 0-.674-.57h.003Z"/><path d="M15.999 15.998 8.283 30.013c.257.141.517.277.785.404s.536.248.804.358L16 15.995v.003ZM22.933 1.58a15.56 15.56 0 0 0-.804-.358l-6.127 14.78 7.716-14.018a14.647 14.647 0 0 0-.785-.404ZM16 15.998 11.593 31.38a16.478 16.478 0 0 0 1.721.392L16 15.998ZM19.55.398a18.058 18.058 0 0 0-.866-.172L16 15.998 20.405.618a16.468 16.468 0 0 0-.855-.22Z"/></g><defs><clipPath id="a"><path fill="#fff" d="M0 0h32v32H0z"/></clipPath></defs></svg>