<svg width="32" height="32" fill="none" xmlns="http://www.w3.org/2000/svg"><g clip-path="url(#a)" fill="#E23C18"><path d="M15.999 0C7.177 0 0 7.167 0 15.977s7.177 15.976 15.999 15.976c8.821 0 15.998-7.166 15.998-15.976S24.82 0 16 0Zm0 31.691C7.323 31.691.265 24.643.265 15.977S7.323.265 16 .265c8.675 0 15.733 7.048 15.733 15.712 0 8.663-7.058 15.714-15.733 15.714Z"/><path d="M15.999 2.178c-7.617 0-13.817 6.19-13.817 13.799 0 7.609 6.197 13.798 13.817 13.798s13.817-6.19 13.817-13.798c0-7.61-6.197-13.799-13.817-13.799Zm0 27.112c-7.352 0-13.332-5.972-13.332-13.313 0-7.342 5.98-13.314 13.332-13.314 7.351 0 13.331 5.972 13.331 13.314 0 7.341-5.98 13.313-13.331 13.313Z"/><path d="M15.999 4.357c-6.415 0-11.636 5.214-11.636 11.62 0 6.406 5.221 11.62 11.636 11.62 6.414 0 11.635-5.214 11.635-11.62 0-6.406-5.218-11.62-11.635-11.62Zm0 22.535c-6.028 0-10.93-4.895-10.93-10.915S9.974 5.062 15.999 5.062c6.025 0 10.93 4.895 10.93 10.915s-4.905 10.915-10.93 10.915Z"/><path d="M15.999 6.536c-5.212 0-9.454 4.236-9.454 9.441 0 5.205 4.242 9.441 9.454 9.441 5.213 0 9.454-4.236 9.454-9.441 0-5.205-4.241-9.441-9.454-9.441Zm0 17.958c-4.702 0-8.528-3.822-8.528-8.517 0-4.695 3.826-8.517 8.528-8.517s8.528 3.822 8.528 8.517c0 4.695-3.826 8.517-8.528 8.517Z"/><path d="M16 8.715c-4.011 0-7.273 3.258-7.273 7.262 0 4.005 3.262 7.263 7.272 7.263s7.273-3.258 7.273-7.263-3.263-7.262-7.273-7.262Zm0 13.38c-3.379 0-6.128-2.744-6.128-6.118 0-3.373 2.75-6.118 6.127-6.118 3.378 0 6.127 2.745 6.127 6.118 0 3.374-2.749 6.119-6.127 6.119Z"/><path d="M16 10.893a5.092 5.092 0 0 0-5.092 5.084 5.092 5.092 0 0 0 10.182 0A5.092 5.092 0 0 0 16 10.893Zm0 8.805a3.726 3.726 0 0 1-3.726-3.72 3.726 3.726 0 0 1 7.45 0c0 2.051-1.67 3.72-3.725 3.72Z"/><path d="M16 13.074a2.911 2.911 0 0 0-2.91 2.905 2.91 2.91 0 0 0 5.82 0A2.91 2.91 0 0 0 16 13.074Zm0 4.224a1.32 1.32 0 1 1 0-2.64 1.32 1.32 0 1 1 0 2.64Z"/></g><defs><clipPath id="a"><path fill="#fff" d="M0 0h32v31.956H0z"/></clipPath></defs></svg>